<?xml version="1.0" standalone="no"?>
<!DOCTYPE svg PUBLIC "-//W3C//DTD SVG 20010904//EN"
 "http://www.w3.org/TR/2001/REC-SVG-20010904/DTD/svg10.dtd">
<svg version="1.0" xmlns="http://www.w3.org/2000/svg"
 width="225.000000pt" height="225.000000pt" viewBox="0 0 225.000000 225.000000"
 preserveAspectRatio="xMidYMid meet">
<metadata>
Created by potrace 1.11, written by Peter Selinger 2001-2013
</metadata>
<g transform="translate(0.000000,225.000000) scale(0.100000,-0.100000)"
fill="#000000" stroke="none">
<path d="M945 2200 c-22 -10 -64 -39 -93 -64 -30 -25 -63 -46 -75 -46 -12 0
-63 -5 -113 -9 -163 -16 -242 -70 -283 -193 -23 -69 -67 -121 -130 -153 -50
-25 -130 -104 -147 -144 -11 -27 -14 -68 -12 -166 l3 -130 -40 -80 c-67 -136
-61 -237 20 -324 60 -66 68 -85 75 -191 13 -177 69 -254 214 -297 60 -17 82
-36 141 -118 59 -84 125 -142 175 -155 28 -7 81 -9 155 -4 l112 7 74 -36 c165
-80 265 -75 368 19 53 47 99 64 176 64 90 0 177 26 225 68 45 38 65 71 86 142
15 52 51 89 138 145 72 46 133 115 142 160 3 20 3 85 0 144 l-7 107 33 64 c91
175 85 274 -23 386 -45 46 -59 85 -59 167 0 114 -52 227 -121 263 -17 9 -55
23 -83 31 -52 15 -146 92 -146 120 0 7 -28 42 -63 77 -80 81 -110 91 -264 81
-110 -7 -113 -6 -175 23 -139 66 -226 78 -303 42z"/>
</g>
</svg>
